# xmcd CD database file generated by OrangeCD 5.2
#
# Track frame offsets:
#	150
#	14369
#	32451
#	47785
#	65691
#	79785
#	95761
#	111510
#	127066
#	140301
#	151737
#	165352
#	177954
#	193699
#	210426
#	227366
#	238439
#	258764
#	272985
#	287961
#	302110
#	320004
#	336389
#	346165
#
# Disc length: 4755 seconds
#
# Revision: 0
# Processed by: cddbd v1.5.1PL0 Copyright (c) Steve Scherf et al.
# Submitted via: OrangeCD 5.2
#
DISCID=61129118
DTITLE=Various Artists Country - New Country Volume 1 CD1
DYEAR=1900
DGENRE=Country
TTITLE0=Billy Ray Cyrus - These Boots Are Made For Walkin' (Live)
TTITLE1=Vince Gill - The Old Rugged Cross
TTITLE2=High Noon - Call Of The Honky Tonk
TTITLE3=Dolly Parton - Today I Started Loving You Again
TTITLE4=Harley Allan - Boy She Did
TTITLE5=Tony Toliver - He's On The Way Home
TTITLE6=George Ducas - Every Time She Passes By
TTITLE7=Steve Kolander - Romeo
TTITLE8=Johnny Paycheck - (Pardon Me) I've Got Someone To Kill
TTITLE9=Charlie Rich - Set Me Free
TTITLE10=Lefty Frizzell - Saginaw, Michigan
TTITLE11=Reno Brothers - No Longer A Sweathart Of Mine
TTITLE12=Jerry Jeff Walker - Down In Texas
TTITLE13=John Jennings - Everybody Loves Me
TTITLE14=Don Williams - Leaving For The Flatlands
TTITLE15=Desperate Man - That Old Friend Of Mine
TTITLE16=Diamond Rio - Walking In Jerusalem
TTITLE17=Rick Shea - Sycamore Grove
TTITLE18=Jimmy LaFave - Heart Of A Woman
TTITLE19=Trace Adkins - I Left Something Turned On At Home
TTITLE20=Bob Woodruff - That Was Then
TTITLE21=Ray Stevens - Too Drunk To Fish
TTITLE22=Tom T. Hall - Country Is
TTITLE23=Hank Williams Jr. - I'll Think Of Something
EXTD=
EXTT0=
EXTT1=
EXTT2=
EXTT3=
EXTT4=
EXTT5=
EXTT6=
EXTT7=
EXTT8=
EXTT9=
EXTT10=
EXTT11=
EXTT12=
EXTT13=
EXTT14=
EXTT15=
EXTT16=
EXTT17=
EXTT18=
EXTT19=
EXTT20=
EXTT21=
EXTT22=
EXTT23=
PLAYORDER=
